<svg xmlns="http://www.w3.org/2000/svg" viewBox="0 0 57.045 56.589" version="1.0"><defs><linearGradient id="c" x1="-466.61" gradientUnits="userSpaceOnUse" y1="529.34" gradientTransform="matrix(0 -.80139 1.2478 0 -431.93 -368.24)" x2="-487.88" y2="550.82"><stop stop-color="#fff" stop-opacity=".727" offset="0"/><stop stop-color="#fff" offset="1"/></linearGradient><linearGradient id="b" x1="302.74" gradientUnits="userSpaceOnUse" y1="377.95" gradientTransform="matrix(1.9519 0 0 1.8418 -375.23 -700.59)" x2="311.27" y2="390.78"><stop stop-color="#fff" offset="0"/><stop stop-color="#fff" stop-opacity="0" offset="1"/></linearGradient><linearGradient id="a" y2="387.44" gradientUnits="userSpaceOnUse" y1="369.98" x2="332.02" x1="314.57"><stop stop-color="#1c97e1" offset="0"/><stop stop-color="#006798" offset="1"/></linearGradient></defs><path style="color:#000" transform="translate(-588.59 -688.147) scale(1.8961)" fill="#166496" d="M339.54 378.06a13.967 13.967 0 1 1-27.94 0 13.967 13.967 0 1 1 27.94 0z"/><path style="color:#000" d="M339.54 378.06a13.967 13.967 0 1 1-27.94 0 13.967 13.967 0 1 1 27.94 0z" transform="translate(-534.91 -625.817) scale(1.7312)" stroke="#fff" stroke-width=".722" fill="url(#a)"/><path style="color:#000" fill="url(#b)" d="M242.05-7.933c-13.34 0-24.17 10.828-24.17 24.175 0 6.413 2.62 12.143 6.7 16.472 2.11-17.5 16.88-31.107 34.95-31.107.49 0 .94.1 1.43.119-4.43-5.75-11.1-9.658-18.91-9.658z" transform="translate(-213.36 12.443)"/><path style="color:#000" fill="url(#c)" d="m226.28 20.315 4.13 4.132 11.7-11.701 11.59 11.588 4.16-4.162-15.72-15.719-15.86 15.862z" transform="translate(-213.36 12.443)"/></svg>